<svg xmlns="http://www.w3.org/2000/svg" viewBox="0 0 34 34"><circle cx="17" cy="16.4" r="12.2" fill="#f53838"/><path d="M22.2 16.8c0 1.4-.6 2.7-1.5 3.7-1 1-2.3 1.5-3.7 1.5-1.4 0-2.7-.6-3.7-1.5-1-1-1.5-2.3-1.5-3.7 0-.3 0-.6.1-.9H10v7c0 .5.4.9.9.9h12.2c.2 0 .5-.1.6-.3.2-.2.3-.4.3-.6v-7h-1.8v.9zM17 20.3c.5 0 .9-.1 1.3-.3.4-.2.8-.4 1.1-.8.3-.3.6-.7.8-1.1.2-.4.3-.9.3-1.3 0-.5-.1-.9-.3-1.3-.2-.4-.4-.8-.8-1.1-.3-.3-.7-.6-1.1-.8-.4-.2-.9-.3-1.3-.3-.9 0-1.8.4-2.5 1-.7.7-1 1.5-1 2.5 0 .9.4 1.8 1 2.5.7.6 1.6 1 2.5 1zm4.2-7.2h2.1c.1 0 .3-.1.4-.2.1-.1.2-.2.2-.4v-2.1c0-.1-.1-.3-.2-.4s-.3 0-.4 0h-2.1c-.1 0-.3.1-.4.2-.1.1-.2.2-.2.4v2.1c.1.2.3.4.6.4zM17 0C12.5 0 8.3 1.8 5.1 4.9 2 8.1.2 12.3.2 16.8S2 25.5 5.1 28.7s7.4 4.9 11.9 4.9c2.2 0 4.4-.4 6.4-1.3 2-.8 3.9-2.1 5.5-3.6 1.6-1.6 2.8-3.4 3.6-5.5.8-2 1.3-4.2 1.3-6.4s-.4-4.4-1.3-6.4c-.8-2-2.1-3.9-3.6-5.5-1.6-1.6-3.4-2.8-5.5-3.6C21.4.4 19.2 0 17 0zm8.8 23.6c0 1.1-.9 1.9-1.9 1.9H10.2c-1.1 0-1.9-.9-1.9-1.9V10c0-1.1.9-1.9 1.9-1.9h13.6c1.1 0 1.9.9 1.9 1.9v13.6z" fill="#fff"/></svg>