<svg xmlns="http://www.w3.org/2000/svg" viewBox="0 0 35 34"><circle cx="17.8" cy="16.2" r="12.2" fill="#f53838"/><path d="M17.4 0C8.1 0 .6 7.5.6 16.8s7.5 16.8 16.8 16.8 16.8-7.5 16.8-16.8S26.7 0 17.4 0zm6.8 13.8v.4c0 4.4-3.3 9.4-9.4 9.4-1.8 0-3.6-.5-5.1-1.5h.8c1.6 0 3-.5 4.1-1.4-.7 0-1.4-.2-1.9-.7-.6-.4-1-1-1.2-1.6.5.1 1 .1 1.5-.1-.7-.2-1.4-.6-1.9-1.1-.5-.6-.7-1.3-.7-2.1.4.2 1 .4 1.5.4-.7-.5-1.2-1.2-1.4-2s-.1-1.7.4-2.4c.8 1 1.9 1.9 3 2.5 1.2.6 2.5.9 3.8 1-.2-.7-.1-1.5.2-2.1.3-.7.8-1.2 1.5-1.6.6-.3 1.4-.5 2.1-.3.7.1 1.4.5 1.9 1 .7-.1 1.5-.4 2.1-.8-.2.8-.8 1.4-1.5 1.8.7-.1 1.3-.3 1.9-.5-.5.6-1 1.2-1.7 1.7z" fill="#fff"/></svg>